<mxfile host="65bd71144e">
    <diagram id="mF904T41DWsilMkjK6hS" name="Page-1">
        <mxGraphModel dx="730" dy="1187" grid="1" gridSize="10" guides="1" tooltips="1" connect="1" arrows="1" fold="1" page="1" pageScale="1" pageWidth="827" pageHeight="1169" math="0" shadow="0">
            <root>
                <mxCell id="0"/>
                <mxCell id="1" parent="0"/>
                <mxCell id="4" value="" style="edgeStyle=none;html=1;entryX=0;entryY=0.5;entryDx=0;entryDy=0;entryPerimeter=0;fontColor=#808080;strokeWidth=1;" parent="1" source="3" target="10" edge="1">
                    <mxGeometry relative="1" as="geometry">
                        <mxPoint x="260" y="216.62537764350452" as="targetPoint"/>
                    </mxGeometry>
                </mxCell>
                <mxCell id="3" value="API Gateway" style="sketch=0;points=[[0,0,0],[0.25,0,0],[0.5,0,0],[0.75,0,0],[1,0,0],[0,1,0],[0.25,1,0],[0.5,1,0],[0.75,1,0],[1,1,0],[0,0.25,0],[0,0.5,0],[0,0.75,0],[1,0.25,0],[1,0.5,0],[1,0.75,0]];outlineConnect=0;fontColor=#808080;gradientColor=#FF4F8B;gradientDirection=north;fillColor=#BC1356;strokeColor=#ffffff;dashed=0;verticalLabelPosition=bottom;verticalAlign=top;align=center;html=1;fontSize=12;fontStyle=0;aspect=fixed;shape=mxgraph.aws4.resourceIcon;resIcon=mxgraph.aws4.api_gateway;" parent="1" vertex="1">
                    <mxGeometry x="90" y="136" width="78" height="78" as="geometry"/>
                </mxCell>
                <mxCell id="8" value="Mongo" style="shape=cylinder3;whiteSpace=wrap;html=1;boundedLbl=1;backgroundOutline=1;size=15;fontColor=#808080;" parent="1" vertex="1">
                    <mxGeometry x="440" y="114" width="100" height="116" as="geometry"/>
                </mxCell>
                <mxCell id="11" value="" style="edgeStyle=none;html=1;fontColor=#808080;exitX=1;exitY=0.25;exitDx=0;exitDy=0;exitPerimeter=0;entryX=0;entryY=0.358;entryDx=0;entryDy=0;entryPerimeter=0;strokeWidth=1;" parent="1" source="10" target="8" edge="1">
                    <mxGeometry relative="1" as="geometry">
                        <mxPoint x="440" y="170" as="targetPoint"/>
                    </mxGeometry>
                </mxCell>
                <mxCell id="13" value="Transaction&lt;br&gt;Request" style="edgeLabel;html=1;align=center;verticalAlign=middle;resizable=0;points=[];fontColor=#808080;" parent="11" vertex="1" connectable="0">
                    <mxGeometry x="-0.1471" y="-2" relative="1" as="geometry">
                        <mxPoint x="2" y="-19" as="offset"/>
                    </mxGeometry>
                </mxCell>
                <mxCell id="12" value="Data" style="edgeStyle=none;html=1;fontColor=#808080;fillColor=#1ba1e2;strokeColor=#006EAF;strokeWidth=2;exitX=0;exitY=0;exitDx=0;exitDy=79.5;exitPerimeter=0;entryX=1;entryY=0.75;entryDx=0;entryDy=0;entryPerimeter=0;" parent="1" source="8" target="10" edge="1">
                    <mxGeometry x="0.1373" y="9" relative="1" as="geometry">
                        <mxPoint x="315" y="326" as="sourcePoint"/>
                        <mxPoint x="370" y="190" as="targetPoint"/>
                        <mxPoint as="offset"/>
                    </mxGeometry>
                </mxCell>
                <mxCell id="10" value="TransactionReader" style="sketch=0;points=[[0,0,0],[0.25,0,0],[0.5,0,0],[0.75,0,0],[1,0,0],[0,1,0],[0.25,1,0],[0.5,1,0],[0.75,1,0],[1,1,0],[0,0.25,0],[0,0.5,0],[0,0.75,0],[1,0.25,0],[1,0.5,0],[1,0.75,0]];outlineConnect=0;fontColor=#808080;gradientColor=#F78E04;gradientDirection=north;fillColor=#D05C17;strokeColor=#ffffff;dashed=0;verticalLabelPosition=bottom;verticalAlign=top;align=center;html=1;fontSize=12;fontStyle=0;aspect=fixed;shape=mxgraph.aws4.resourceIcon;resIcon=mxgraph.aws4.lambda;" parent="1" vertex="1">
                    <mxGeometry x="255.5" y="136" width="78" height="78" as="geometry"/>
                </mxCell>
                <mxCell id="15" value="" style="edgeStyle=none;html=1;" edge="1" parent="1" source="14" target="8">
                    <mxGeometry relative="1" as="geometry"/>
                </mxCell>
                <mxCell id="14" value="TransactionTest2" style="sketch=0;points=[[0,0,0],[0.25,0,0],[0.5,0,0],[0.75,0,0],[1,0,0],[0,1,0],[0.25,1,0],[0.5,1,0],[0.75,1,0],[1,1,0],[0,0.25,0],[0,0.5,0],[0,0.75,0],[1,0.25,0],[1,0.5,0],[1,0.75,0]];outlineConnect=0;fontColor=#808080;gradientColor=#F78E04;gradientDirection=north;fillColor=#D05C17;strokeColor=#ffffff;dashed=0;verticalLabelPosition=bottom;verticalAlign=top;align=center;html=1;fontSize=12;fontStyle=0;aspect=fixed;shape=mxgraph.aws4.resourceIcon;resIcon=mxgraph.aws4.lambda;" vertex="1" parent="1">
                    <mxGeometry x="451" y="340" width="78" height="78" as="geometry"/>
                </mxCell>
                <mxCell id="16" value="This is a diagram for explaining better" style="text;strokeColor=none;align=center;fillColor=none;html=1;verticalAlign=middle;whiteSpace=wrap;rounded=0;" vertex="1" parent="1">
                    <mxGeometry x="150" y="330" width="190" height="70" as="geometry"/>
                </mxCell>
            </root>
        </mxGraphModel>
    </diagram>
</mxfile>